<svg width="16" height="16" viewBox="0 0 16 16" fill="none" xmlns="http://www.w3.org/2000/svg">
<path fill-rule="evenodd" clip-rule="evenodd" d="M15.0303 2.03033C15.3232 1.73744 15.3232 1.26256 15.0303 0.96967C14.7374 0.676777 14.2626 0.676777 13.9697 0.96967L11.9227 3.01661C10.8649 2.41044 9.56927 2 8 2C2 2 0 8 0 8C0 8 0.782036 10.3461 2.83513 12.1042L0.96967 13.9697C0.676777 14.2626 0.676777 14.7374 0.96967 15.0303C1.26256 15.3232 1.73744 15.3232 2.03033 15.0303L4.07727 12.9834C4.08235 12.9863 4.08744 12.9892 4.09253 12.9921L4.07951 12.9791L13.979 3.07959L13.98 3.08062L15.0303 2.03033ZM14.463 5.26465L13.3927 6.33499C13.7735 6.8467 14.0562 7.34148 14.2521 7.73332C14.3003 7.82964 14.3428 7.91901 14.38 8C14.3428 8.081 14.3003 8.17036 14.2521 8.26668C14.0086 8.75371 13.631 9.39978 13.0977 10.0397C12.0403 11.3085 10.4284 12.5 8 12.5C7.74633 12.5 7.50157 12.487 7.26542 12.4623L5.97486 13.7528C6.59254 13.9103 7.26637 14 8 14C14 14 16 8 16 8C16 8 15.5571 6.67143 14.463 5.26465ZM10.8135 4.12585C10.026 3.74278 9.09615 3.5 8 3.5C5.57164 3.5 3.95965 4.69149 2.90233 5.96028C2.36905 6.60022 1.99141 7.24629 1.74789 7.73332C1.69973 7.82964 1.65718 7.919 1.62005 8C1.65718 8.081 1.69973 8.17036 1.74789 8.26668C1.99141 8.75371 2.36905 9.39978 2.90233 10.0397C3.19137 10.3866 3.52187 10.7276 3.89916 11.0402L5.78295 9.15639C5.60221 8.81058 5.5 8.41723 5.5 8C5.5 6.61929 6.61929 5.5 8 5.5C8.41723 5.5 8.81058 5.60221 9.15639 5.78295L10.8135 4.12585ZM1.4217 8.47828L1.42108 8.48012C1.4209 8.48065 1.42119 8.47981 1.42195 8.47764L1.4217 8.47828Z" fill="#000B26" fill-opacity="0.72"/>
</svg>
