<svg width="16" height="16" viewBox="0 0 16 16" fill="none" xmlns="http://www.w3.org/2000/svg">
<path fill-rule="evenodd" clip-rule="evenodd" d="M0 8C0 8 2 14 8 14C14 14 16 8 16 8C16 8 14 2 8 2C2 2 0 8 0 8ZM1.42195 8.47764C1.42119 8.47981 1.4209 8.48065 1.42108 8.48012L1.4217 8.47828L1.42195 8.47764ZM1.62005 8C1.65718 7.919 1.69973 7.82964 1.74789 7.73332C1.99141 7.24629 2.36905 6.60022 2.90233 5.96028C3.95965 4.69149 5.57164 3.5 8 3.5C10.4284 3.5 12.0403 4.69149 13.0977 5.96028C13.631 6.60022 14.0086 7.24629 14.2521 7.73332C14.3003 7.82964 14.3428 7.91901 14.38 8C14.3428 8.081 14.3003 8.17036 14.2521 8.26668C14.0086 8.75371 13.631 9.39978 13.0977 10.0397C12.0403 11.3085 10.4284 12.5 8 12.5C5.57164 12.5 3.95965 11.3085 2.90233 10.0397C2.36905 9.39978 1.99141 8.75371 1.74789 8.26668C1.69973 8.17036 1.65718 8.081 1.62005 8Z" fill="#000B26" fill-opacity="0.72"/>
<circle cx="8" cy="8" r="2.5" fill="#000B26" fill-opacity="0.72"/>
</svg>
